<svg width="16" height="16" viewBox="0 0 16 16" fill="none" xmlns="http://www.w3.org/2000/svg">
<path d="M11.03 0.470011C11.1705 0.610637 11.2493 0.801261 11.2493 1.00001C11.2493 1.19876 11.1705 1.38939 11.03 1.53001L4.56 8.00001L11.03 14.47C11.1037 14.5387 11.1628 14.6215 11.2038 14.7135C11.2448 14.8055 11.2668 14.9048 11.2686 15.0055C11.2704 15.1062 11.2518 15.2062 11.2141 15.2996C11.1764 15.393 11.1203 15.4778 11.049 15.549C10.9778 15.6203 10.893 15.6764 10.7996 15.7141C10.7062 15.7519 10.6062 15.7704 10.5055 15.7686C10.4048 15.7668 10.3055 15.7448 10.2135 15.7038C10.1215 15.6628 10.0387 15.6037 9.97 15.53L2.44 8.00001L9.97 0.470011C10.1106 0.329561 10.3012 0.250671 10.5 0.250671C10.6988 0.250671 10.8894 0.329561 11.03 0.470011Z" fill="#F1F1F1"/>
</svg>
