<svg width="24" height="24" viewBox="0 0 24 24" fill="none" xmlns="http://www.w3.org/2000/svg">
<g clip-path="url(#clip0_40_16)">
<path d="M12.228 24H12C8.82742 23.9699 5.79589 22.6845 3.56847 20.4252C1.34106 18.1658 0.0990634 15.1162 0.114134 11.9435C0.129205 8.77086 1.40012 5.73326 3.64889 3.49514C5.89767 1.25702 8.94128 0.000549316 12.114 0.000549316C15.2867 0.000549316 18.3303 1.25702 20.5791 3.49514C22.8279 5.73326 24.0988 8.77086 24.1139 11.9435C24.1289 15.1162 22.8869 18.1658 20.6595 20.4252C18.4321 22.6845 15.4006 23.9699 12.228 24ZM11.613 2.69701C11.274 3.10651 10.9185 3.76651 10.5975 4.68151C10.044 6.26401 9.6585 8.42551 9.567 10.875H14.8875C14.7975 8.42551 14.4105 6.26401 13.857 4.68151C13.5375 3.76651 13.182 3.10651 12.843 2.69701C12.552 2.34451 12.354 2.26951 12.2655 2.25301H12.1995C12.117 2.26351 11.9145 2.33101 11.613 2.69701ZM7.3155 10.875C7.4085 8.21851 7.8255 5.79601 8.475 3.93901C8.6235 3.51301 8.787 3.10801 8.9685 2.73001C7.19748 3.31067 5.62974 4.38625 4.4506 5.82961C3.27146 7.27297 2.53022 9.02376 2.3145 10.875H7.3155ZM2.3145 13.125C2.53022 14.9763 3.27146 16.727 4.4506 18.1704C5.62974 19.6138 7.19748 20.6893 8.9685 21.27C8.7816 20.8763 8.61635 20.4727 8.4735 20.061C7.824 18.204 7.4085 15.7815 7.3155 13.125H2.3145ZM9.567 13.125C9.6585 15.5745 10.044 17.736 10.5975 19.3185C10.9185 20.2335 11.274 20.8935 11.613 21.303C11.916 21.669 12.117 21.738 12.1995 21.7485L12.2655 21.747C12.3555 21.732 12.5505 21.6555 12.843 21.303C13.182 20.8935 13.5375 20.2335 13.857 19.3185C14.412 17.736 14.796 15.5745 14.8875 13.125H9.567ZM17.139 13.125C17.0475 15.7815 16.6305 18.204 15.981 20.061C15.858 20.4135 15.7245 20.751 15.579 21.072C17.2203 20.4233 18.655 19.3417 19.7303 17.9423C20.8056 16.5428 21.4813 14.878 21.6855 13.125H17.1405H17.139ZM21.6855 10.875C21.4812 9.12205 20.8054 7.45729 19.7301 6.0579C18.6548 4.6585 17.2202 3.57683 15.579 2.92801C15.7245 3.24901 15.858 3.58801 15.981 3.93901C16.6305 5.79601 17.0475 8.21851 17.139 10.875H21.6855Z" fill="#F1F1F1"/>
</g>
<defs>
<clipPath id="clip0_40_16">
<rect width="24" height="24" fill="white"/>
</clipPath>
</defs>
</svg>
