<svg width="12" height="12" viewBox="0 0 12 12" fill="none" xmlns="http://www.w3.org/2000/svg">
<path d="M2.15902 2.65902C1.95008 2.86795 1.78435 3.11599 1.67127 3.38898C1.5582 3.66196 1.5 3.95454 1.5 4.25002C1.5 4.5455 1.5582 4.83808 1.67127 5.11106C1.78435 5.38405 1.95008 5.63209 2.15902 5.84102L6.00002 9.68202L9.84102 5.84102C10.263 5.41906 10.5 4.84676 10.5 4.25002C10.5 3.65328 10.263 3.08098 9.84102 2.65902C9.41906 2.23706 8.84676 2.00001 8.25002 2.00001C7.65328 2.00001 7.08098 2.23706 6.65902 2.65902L6.00002 3.31802L5.34102 2.65902C5.13209 2.45008 4.88405 2.28435 4.61106 2.17127C4.33808 2.0582 4.0455 2 3.75002 2C3.45454 2 3.16196 2.0582 2.88898 2.17127C2.61599 2.28435 2.36795 2.45008 2.15902 2.65902V2.65902Z" fill="white" stroke="white" stroke-width="2" stroke-linecap="round" stroke-linejoin="round"/>
</svg>
