<svg width="124" height="40" viewBox="0 0 124 40" fill="none" xmlns="http://www.w3.org/2000/svg">
<rect y="8" width="24" height="24" rx="4" fill="url(#paint0_linear_5_51)"/>
<path d="M8.15902 16.659C7.95008 16.868 7.78435 17.116 7.67127 17.389C7.5582 17.662 7.5 17.9545 7.5 18.25C7.5 18.5455 7.5582 18.8381 7.67127 19.1111C7.78435 19.384 7.95008 19.6321 8.15902 19.841L12 23.682L15.841 19.841C16.263 19.4191 16.5 18.8468 16.5 18.25C16.5 17.6533 16.263 17.081 15.841 16.659C15.4191 16.2371 14.8468 16 14.25 16C13.6533 16 13.081 16.2371 12.659 16.659L12 17.318L11.341 16.659C11.1321 16.4501 10.884 16.2843 10.6111 16.1713C10.3381 16.0582 10.0455 16 9.75002 16C9.45454 16 9.16196 16.0582 8.88898 16.1713C8.61599 16.2843 8.36795 16.4501 8.15902 16.659V16.659Z" fill="white" stroke="white" stroke-width="2" stroke-linecap="round" stroke-linejoin="round"/>
<path d="M41.2404 25.5V15.3182H43.3931V23.7251H47.7582V25.5H41.2404ZM49.144 25.5V17.8636H51.2619V25.5H49.144ZM50.2079 16.8793C49.8931 16.8793 49.6229 16.7749 49.3975 16.5661C49.1755 16.3539 49.0645 16.1004 49.0645 15.8054C49.0645 15.5137 49.1755 15.2635 49.3975 15.0547C49.6229 14.8426 49.8931 14.7365 50.2079 14.7365C50.5228 14.7365 50.7913 14.8426 51.0133 15.0547C51.2387 15.2635 51.3514 15.5137 51.3514 15.8054C51.3514 16.1004 51.2387 16.3539 51.0133 16.5661C50.7913 16.7749 50.5228 16.8793 50.2079 16.8793ZM54.8775 23.3026L54.8825 20.7621H55.1907L57.6367 17.8636H60.0678L56.7816 21.7017H56.2795L54.8775 23.3026ZM52.9585 25.5V15.3182H55.0763V25.5H52.9585ZM57.7312 25.5L55.484 22.174L56.896 20.6776L60.212 25.5H57.7312ZM64.2725 25.6491C63.487 25.6491 62.8109 25.4901 62.2441 25.1719C61.6807 24.8504 61.2465 24.3963 60.9416 23.8097C60.6367 23.2197 60.4842 22.522 60.4842 21.7166C60.4842 20.9311 60.6367 20.2417 60.9416 19.6484C61.2465 19.0552 61.6757 18.5928 62.2292 18.2614C62.786 17.9299 63.439 17.7642 64.188 17.7642C64.6918 17.7642 65.1608 17.8454 65.595 18.0078C66.0325 18.1669 66.4136 18.4072 66.7385 18.7287C67.0666 19.0502 67.3218 19.4545 67.5041 19.9418C67.6864 20.4257 67.7775 20.9924 67.7775 21.642V22.2237H61.3294V20.9112H65.7839C65.7839 20.6063 65.7176 20.3362 65.585 20.1009C65.4525 19.8655 65.2685 19.6816 65.0332 19.549C64.8012 19.4131 64.5311 19.3452 64.2228 19.3452C63.9013 19.3452 63.6163 19.4197 63.3677 19.5689C63.1225 19.7147 62.9302 19.9119 62.791 20.1605C62.6518 20.4058 62.5806 20.6792 62.5772 20.9808V22.2287C62.5772 22.6065 62.6468 22.933 62.786 23.2081C62.9286 23.4832 63.1291 23.6953 63.3876 23.8445C63.6461 23.9936 63.9527 24.0682 64.3074 24.0682C64.5427 24.0682 64.7581 24.035 64.9537 23.9688C65.1492 23.9025 65.3166 23.803 65.4558 23.6705C65.595 23.5379 65.7011 23.3755 65.774 23.1832L67.7328 23.3125C67.6333 23.7831 67.4295 24.1941 67.1213 24.5455C66.8163 24.8935 66.4219 25.1652 65.938 25.3608C65.4574 25.553 64.9023 25.6491 64.2725 25.6491ZM71.9735 25.6243C71.3935 25.6243 70.8682 25.4751 70.3975 25.1768C69.9302 24.8752 69.559 24.4328 69.2839 23.8494C69.0121 23.2628 68.8762 22.5436 68.8762 21.6918C68.8762 20.8168 69.0171 20.0893 69.2988 19.5092C69.5806 18.9259 69.9551 18.4901 70.4224 18.2017C70.8931 17.91 71.4084 17.7642 71.9686 17.7642C72.3961 17.7642 72.7524 17.8371 73.0375 17.983C73.3258 18.1255 73.5578 18.3045 73.7335 18.5199C73.9125 18.732 74.0484 18.9408 74.1412 19.1463H74.2058V15.3182H76.3187V25.5H74.2306V24.277H74.1412C74.0417 24.4891 73.9009 24.6996 73.7186 24.9084C73.5396 25.1139 73.3059 25.2846 73.0176 25.4205C72.7325 25.5563 72.3845 25.6243 71.9735 25.6243ZM72.6447 23.9389C72.9861 23.9389 73.2744 23.8461 73.5098 23.6605C73.7484 23.4716 73.9307 23.2081 74.0566 22.87C74.1859 22.532 74.2505 22.1359 74.2505 21.6818C74.2505 21.2277 74.1876 20.8333 74.0616 20.4986C73.9357 20.1638 73.7534 19.9053 73.5147 19.723C73.2761 19.5407 72.9861 19.4496 72.6447 19.4496C72.2967 19.4496 72.0034 19.544 71.7647 19.733C71.5261 19.9219 71.3455 20.1837 71.2228 20.5185C71.1002 20.8532 71.0389 21.241 71.0389 21.6818C71.0389 22.1259 71.1002 22.5187 71.2228 22.8601C71.3488 23.1982 71.5294 23.4633 71.7647 23.6555C72.0034 23.8445 72.2967 23.9389 72.6447 23.9389ZM86.8635 18.2464C86.8237 17.8454 86.653 17.5339 86.3514 17.3118C86.0498 17.0897 85.6404 16.9787 85.1234 16.9787C84.7721 16.9787 84.4754 17.0284 84.2335 17.1278C83.9915 17.224 83.8059 17.3582 83.6767 17.5305C83.5507 17.7029 83.4877 17.8984 83.4877 18.1172C83.4811 18.2995 83.5192 18.4586 83.6021 18.5945C83.6883 18.7304 83.8059 18.848 83.9551 18.9474C84.1042 19.0436 84.2766 19.1281 84.4721 19.201C84.6677 19.2706 84.8765 19.3303 85.0985 19.38L86.0133 19.5987C86.4574 19.6982 86.8651 19.8307 87.2363 19.9964C87.6075 20.1622 87.929 20.366 88.2008 20.608C88.4726 20.8499 88.6831 21.1349 88.8322 21.4631C88.9847 21.7912 89.0626 22.1674 89.0659 22.5916C89.0626 23.2147 88.9035 23.755 88.5886 24.2124C88.277 24.6664 87.8263 25.0194 87.2363 25.2713C86.6497 25.5199 85.9421 25.6442 85.1135 25.6442C84.2915 25.6442 83.5756 25.5182 82.9657 25.2663C82.3592 25.0144 81.8852 24.6416 81.5439 24.1477C81.2058 23.6506 81.0285 23.0357 81.0119 22.3033H83.095C83.1182 22.6446 83.216 22.9297 83.3883 23.1584C83.564 23.3838 83.7976 23.5545 84.0893 23.6705C84.3843 23.7831 84.7174 23.8395 85.0886 23.8395C85.4532 23.8395 85.7697 23.7865 86.0382 23.6804C86.31 23.5743 86.5204 23.4268 86.6696 23.2379C86.8187 23.049 86.8933 22.8319 86.8933 22.5866C86.8933 22.358 86.8253 22.1657 86.6895 22.0099C86.5569 21.8542 86.3613 21.7216 86.1028 21.6122C85.8476 21.5028 85.5344 21.4034 85.1632 21.3139L84.0545 21.0355C83.1961 20.8267 82.5183 20.5002 82.0211 20.0561C81.524 19.612 81.277 19.0137 81.2804 18.2614C81.277 17.6449 81.4411 17.1063 81.7725 16.6456C82.1073 16.1849 82.5663 15.8253 83.1497 15.5668C83.733 15.3082 84.3959 15.179 85.1383 15.179C85.894 15.179 86.5536 15.3082 87.117 15.5668C87.6838 15.8253 88.1246 16.1849 88.4395 16.6456C88.7543 17.1063 88.9167 17.6399 88.9267 18.2464H86.8635ZM93.9244 25.6491C93.1521 25.6491 92.4843 25.4851 91.9208 25.157C91.3607 24.8255 90.9281 24.3648 90.6232 23.7749C90.3183 23.1816 90.1658 22.4938 90.1658 21.7116C90.1658 20.9228 90.3183 20.2334 90.6232 19.6435C90.9281 19.0502 91.3607 18.5895 91.9208 18.2614C92.4843 17.9299 93.1521 17.7642 93.9244 17.7642C94.6966 17.7642 95.3628 17.9299 95.9229 18.2614C96.4864 18.5895 96.9206 19.0502 97.2255 19.6435C97.5304 20.2334 97.6829 20.9228 97.6829 21.7116C97.6829 22.4938 97.5304 23.1816 97.2255 23.7749C96.9206 24.3648 96.4864 24.8255 95.9229 25.157C95.3628 25.4851 94.6966 25.6491 93.9244 25.6491ZM93.9343 24.0085C94.2856 24.0085 94.579 23.9091 94.8143 23.7102C95.0496 23.508 95.2269 23.233 95.3462 22.8849C95.4689 22.5369 95.5302 22.1409 95.5302 21.6967C95.5302 21.2526 95.4689 20.8565 95.3462 20.5085C95.2269 20.1605 95.0496 19.8854 94.8143 19.6832C94.579 19.4811 94.2856 19.38 93.9343 19.38C93.5797 19.38 93.2814 19.4811 93.0394 19.6832C92.8008 19.8854 92.6201 20.1605 92.4975 20.5085C92.3782 20.8565 92.3185 21.2526 92.3185 21.6967C92.3185 22.1409 92.3782 22.5369 92.4975 22.8849C92.6201 23.233 92.8008 23.508 93.0394 23.7102C93.2814 23.9091 93.5797 24.0085 93.9343 24.0085ZM101.178 21.0852V25.5H99.06V17.8636H101.078V19.2109H101.168C101.337 18.7668 101.62 18.4155 102.018 18.157C102.416 17.8951 102.898 17.7642 103.465 17.7642C103.995 17.7642 104.458 17.8802 104.852 18.1122C105.246 18.3442 105.553 18.6757 105.772 19.1065C105.99 19.5341 106.1 20.0445 106.1 20.6378V25.5H103.982V21.0156C103.985 20.5483 103.866 20.1837 103.624 19.9219C103.382 19.6567 103.049 19.5241 102.625 19.5241C102.34 19.5241 102.088 19.5855 101.869 19.7081C101.654 19.8307 101.484 20.0097 101.362 20.245C101.243 20.477 101.181 20.7571 101.178 21.0852ZM111.209 28.5227C110.523 28.5227 109.935 28.4283 109.444 28.2393C108.957 28.0537 108.569 27.8002 108.281 27.4787C107.993 27.1572 107.805 26.7959 107.719 26.3949L109.678 26.1314C109.738 26.2839 109.832 26.4264 109.961 26.5589C110.091 26.6915 110.261 26.7976 110.474 26.8771C110.689 26.96 110.951 27.0014 111.259 27.0014C111.72 27.0014 112.099 26.8887 112.398 26.6634C112.699 26.4413 112.85 26.0684 112.85 25.5447V24.1477H112.76C112.668 24.3598 112.528 24.5604 112.343 24.7493C112.157 24.9382 111.919 25.0923 111.627 25.2116C111.335 25.331 110.987 25.3906 110.583 25.3906C110.01 25.3906 109.488 25.258 109.017 24.9929C108.55 24.7244 108.177 24.3151 107.898 23.7649C107.623 23.2114 107.486 22.5121 107.486 21.6669C107.486 20.8018 107.626 20.0793 107.908 19.4993C108.19 18.9193 108.564 18.4851 109.032 18.1967C109.502 17.9084 110.018 17.7642 110.578 17.7642C111.006 17.7642 111.363 17.8371 111.652 17.983C111.94 18.1255 112.172 18.3045 112.348 18.5199C112.527 18.732 112.664 18.9408 112.76 19.1463H112.84V17.8636H114.943V25.5746C114.943 26.2242 114.784 26.7678 114.466 27.2053C114.148 27.6428 113.707 27.9709 113.143 28.1896C112.583 28.4117 111.939 28.5227 111.209 28.5227ZM111.254 23.7997C111.595 23.7997 111.884 23.7152 112.119 23.5462C112.358 23.3738 112.54 23.1286 112.666 22.8104C112.795 22.4889 112.86 22.1044 112.86 21.657C112.86 21.2095 112.797 20.8217 112.671 20.4936C112.545 20.1622 112.363 19.9053 112.124 19.723C111.885 19.5407 111.595 19.4496 111.254 19.4496C110.906 19.4496 110.613 19.544 110.374 19.733C110.135 19.9186 109.955 20.1771 109.832 20.5085C109.71 20.84 109.648 21.2228 109.648 21.657C109.648 22.0978 109.71 22.4789 109.832 22.8004C109.958 23.1186 110.139 23.3655 110.374 23.5412C110.613 23.7135 110.906 23.7997 111.254 23.7997ZM122.982 20.0412L121.043 20.1605C121.01 19.9948 120.939 19.8456 120.829 19.7131C120.72 19.5772 120.576 19.4695 120.397 19.3899C120.221 19.3071 120.011 19.2656 119.765 19.2656C119.437 19.2656 119.161 19.3352 118.935 19.4744C118.71 19.6103 118.597 19.7926 118.597 20.0213C118.597 20.2036 118.67 20.3577 118.816 20.4837C118.962 20.6096 119.212 20.7107 119.567 20.7869L120.949 21.0653C121.691 21.2178 122.245 21.4631 122.609 21.8011C122.974 22.1392 123.156 22.5833 123.156 23.1335C123.156 23.634 123.009 24.0732 122.714 24.451C122.422 24.8288 122.021 25.1238 121.51 25.3359C121.003 25.5447 120.418 25.6491 119.756 25.6491C118.745 25.6491 117.939 25.4387 117.339 25.0178C116.743 24.5935 116.393 24.0168 116.29 23.2876L118.373 23.1783C118.436 23.4865 118.589 23.7218 118.831 23.8842C119.073 24.0433 119.383 24.1229 119.76 24.1229C120.132 24.1229 120.43 24.0516 120.655 23.9091C120.884 23.7633 121 23.576 121.003 23.3473C121 23.1551 120.919 22.9976 120.76 22.875C120.601 22.7491 120.355 22.6529 120.024 22.5866L118.702 22.3232C117.956 22.174 117.401 21.9155 117.036 21.5476C116.675 21.1797 116.494 20.7107 116.494 20.1406C116.494 19.6501 116.627 19.2275 116.892 18.8729C117.16 18.5182 117.537 18.2448 118.02 18.0526C118.508 17.8603 119.078 17.7642 119.731 17.7642C120.695 17.7642 121.454 17.968 122.008 18.3757C122.564 18.7834 122.889 19.3385 122.982 20.0412Z" fill="#B3B3AD"/>
<defs>
<linearGradient id="paint0_linear_5_51" x1="0" y1="8" x2="24" y2="32" gradientUnits="userSpaceOnUse">
<stop stop-color="#3B06EB"/>
<stop offset="0.463542" stop-color="#796DE0"/>
<stop offset="1" stop-color="#CAEDD9"/>
</linearGradient>
</defs>
</svg>
