<svg width="50" height="50" viewBox="0 0 50 50" fill="none" xmlns="http://www.w3.org/2000/svg">
<g clip-path="url(#clip0_16_58)">
<rect width="50" height="50" rx="25" fill="#1FDF64"/>
<path d="M20.05 16.606L33.54 24.394C33.6463 24.4555 33.7346 24.5438 33.7959 24.6502C33.8573 24.7565 33.8896 24.8772 33.8896 25C33.8896 25.1228 33.8573 25.2434 33.7959 25.3498C33.7346 25.4562 33.6463 25.5445 33.54 25.606L20.05 33.394C19.9436 33.4554 19.8229 33.4878 19.7001 33.4878C19.5772 33.4878 19.4565 33.4555 19.3501 33.394C19.2437 33.3326 19.1553 33.2443 19.0939 33.1379C19.0324 33.0315 19 32.9108 19 32.788V17.212C19 17.0891 19.0324 16.9684 19.0939 16.8621C19.1553 16.7557 19.2437 16.6673 19.3501 16.6059C19.4565 16.5445 19.5772 16.5122 19.7001 16.5122C19.8229 16.5122 19.9436 16.5446 20.05 16.606Z" fill="#1E1E1E"/>
</g>
<defs>
<clipPath id="clip0_16_58">
<rect width="50" height="50" fill="white"/>
</clipPath>
</defs>
</svg>
