<svg width="173" height="52" viewBox="0 0 173 52" fill="none" xmlns="http://www.w3.org/2000/svg">
<g id="Spotify Logo ">
<path id="Vector" d="M1.22046 26.1529C1.22046 40.2235 12.8148 51.8471 26.8501 51.8471C40.8854 51.8471 52.4797 40.2235 52.4797 26.1529C52.4797 12.0823 40.8854 0.611755 26.8501 0.611755C12.8148 0.611755 1.22046 12.0823 1.22046 26.1529ZM36.3086 38.0823C30.3589 34.4118 22.731 33.4941 13.8827 35.4823C11.7469 35.7882 11.4418 32.7294 13.2725 32.4235C23.0362 30.1294 31.2742 31.2 37.9868 35.3294C39.6649 36.4 37.9868 39 36.3086 38.0823ZM38.9021 31.2C32.037 26.9176 21.5106 25.6941 13.425 28.1412C10.8316 28.9059 9.91623 24.9294 12.3571 24.3176C21.6631 21.5647 33.1049 22.9412 41.0379 27.8353C43.1737 29.2118 41.0379 32.5765 38.9021 31.2ZM12.2046 20.3412C9.61111 21.2588 7.93298 16.8235 10.8316 15.7529C19.8325 13 35.0882 13.4588 44.5467 19.1176C47.1402 20.4941 44.6993 24.7765 41.9533 23.2471C33.7152 18.3529 19.985 17.8941 12.2046 20.3412ZM70.0238 34.2588C67.4303 34.2588 64.9894 33.3412 62.8536 31.2C62.7011 31.2 62.7011 31.3529 62.7011 31.3529L60.2601 34.2588C60.1076 34.4118 60.1076 34.5647 60.2601 34.7176C63.0062 37.1647 66.3624 38.3882 70.0238 38.3882C75.2108 38.3882 78.4145 35.4823 78.4145 31.2C78.4145 27.5294 76.1261 25.5412 70.7866 24.1647C66.3624 23.0941 65.5996 22.3294 65.5996 20.8C65.5996 19.2706 67.1252 18.3529 69.1085 18.3529C71.0917 18.3529 72.9224 19.1176 75.0582 20.6471C75.0582 20.6471 75.2108 20.8 75.3633 20.8C75.5159 20.8 75.5159 20.6471 75.5159 20.6471L77.6517 17.5882C77.8042 17.4353 77.8042 17.4353 77.6517 17.2823C75.2108 15.2941 72.3122 14.2235 69.1085 14.2235C64.3792 14.2235 61.0229 17.1294 61.0229 21.2588C61.0229 25.6941 64.0741 27.0706 68.9559 28.2941C73.2275 29.2118 73.8377 30.1294 73.8377 31.6588C73.8377 33.3412 72.3122 34.2588 70.0238 34.2588ZM84.5168 22.4823V20.4941C84.5168 20.3412 84.3642 20.1882 84.2116 20.1882H80.2451C80.0926 20.1882 79.94 20.3412 79.94 20.4941V42.9765C79.94 43.1294 80.0926 43.2823 80.2451 43.2823H84.2116C84.3642 43.2823 84.5168 43.1294 84.5168 42.9765V35.9412C86.0423 37.6235 87.7205 38.3882 90.0088 38.3882C94.1279 38.3882 98.2469 35.1765 98.2469 29.0588C98.2469 22.9412 94.1279 19.8823 90.0088 19.8823C87.7205 19.8823 86.0423 20.6471 84.5168 22.4823ZM89.0935 34.4118C86.3474 34.4118 84.3642 32.1176 84.3642 29.0588C84.3642 26 86.3474 23.8588 89.0935 23.8588C91.8395 23.8588 93.6702 26 93.6702 29.0588C93.6702 32.1176 91.8395 34.4118 89.0935 34.4118ZM99.4674 29.2118C99.4674 34.4118 103.586 38.3882 108.926 38.3882C114.265 38.3882 118.384 34.2588 118.384 29.0588C118.384 23.8588 114.418 19.8823 109.078 19.8823C103.739 19.8823 99.4674 24.0118 99.4674 29.2118ZM104.044 29.0588C104.044 26 106.027 23.8588 108.926 23.8588C111.825 23.8588 113.96 26.1529 113.96 29.2118C113.96 32.2706 111.977 34.4118 109.078 34.4118C106.18 34.4118 104.044 32.1176 104.044 29.0588ZM125.402 20.1882V15.7529C125.402 15.6 125.402 15.4471 125.25 15.4471H121.283C121.131 15.4471 120.978 15.6 120.978 15.7529V20.1882H118.995C118.842 20.1882 118.69 20.3412 118.69 20.4941V23.8588C118.69 24.0118 118.842 24.1647 118.995 24.1647H120.978V33.0353C120.978 36.5529 122.656 38.3882 126.165 38.3882C127.538 38.3882 128.911 38.0823 129.979 37.4706C130.131 37.4706 130.131 37.3176 130.131 37.1647V33.9529C130.131 33.8 130.131 33.6471 129.979 33.6471H129.674C128.911 34.1059 127.996 34.2588 127.233 34.2588C126.012 34.2588 125.402 33.6471 125.402 32.4235V24.1647H129.979C130.131 24.1647 130.284 24.0118 130.284 23.8588V20.4941C130.284 20.3412 130.131 20.1882 129.979 20.1882H125.402ZM145.082 19.7294C145.082 18.0471 145.692 17.4353 147.065 17.4353C147.828 17.4353 148.591 17.4353 149.354 17.7412H149.506C149.506 17.7412 149.659 17.5882 149.659 17.4353V14.2235C149.659 14.0706 149.659 13.9176 149.506 13.9176C148.743 13.6118 147.675 13.4588 146.15 13.4588C142.489 13.4588 140.658 15.6 140.658 19.4235V20.1882H138.675C138.522 20.1882 138.369 20.3412 138.369 20.4941V23.8588C138.369 24.0118 138.522 24.1647 138.675 24.1647H140.658V37.7765C140.658 37.9294 140.81 38.0823 140.963 38.0823H144.929C145.082 38.0823 145.082 37.9294 145.082 37.7765V24.1647H148.896L154.541 37.7765C153.93 39.1529 153.32 39.4588 152.405 39.4588C151.642 39.4588 150.879 39.3059 150.116 38.8471H149.964L149.811 39L148.438 41.9059C148.438 42.0588 148.438 42.3647 148.591 42.3647C149.964 43.1294 151.184 43.4353 152.71 43.4353C155.608 43.4353 157.287 42.0588 158.66 38.3882L165.525 20.6471V20.3412C165.525 20.1882 165.372 20.1882 165.22 20.1882H161.101C160.948 20.1882 160.948 20.3412 160.948 20.4941L156.676 32.4235L152.1 20.4941C152.1 20.3412 151.947 20.1882 151.795 20.1882H145.082V19.7294ZM132.42 20.1882C132.267 20.1882 132.115 20.3412 132.115 20.4941V37.7765C132.115 37.9294 132.267 38.0823 132.42 38.0823H136.386C136.539 38.0823 136.539 37.9294 136.539 37.7765V20.4941C136.539 20.3412 136.539 20.1882 136.386 20.1882H132.42ZM131.504 15.1412C131.504 16.6706 132.877 18.0471 134.403 18.0471C135.929 18.0471 137.149 16.6706 137.149 15.1412C137.149 13.6118 135.929 12.3882 134.403 12.3882C132.877 12.3882 131.504 13.6118 131.504 15.1412ZM168.881 25.6941C170.407 25.6941 171.78 24.4706 171.78 22.9412C171.78 21.4118 170.407 20.1882 168.881 20.1882C167.355 20.1882 166.135 21.4118 166.135 22.9412C166.135 24.4706 167.355 25.6941 168.881 25.6941ZM168.881 20.4941C170.254 20.4941 171.474 21.5647 171.474 22.9412C171.474 24.3176 170.254 25.3882 168.881 25.3882C167.508 25.3882 166.44 24.3176 166.44 22.9412C166.44 21.5647 167.508 20.4941 168.881 20.4941ZM169.491 23.2471C169.949 23.0941 170.254 22.7882 170.254 22.3294C170.254 21.7176 169.644 21.4118 169.034 21.4118H167.813V24.3176H168.423V23.4H169.034L169.644 24.3176H170.407L169.491 23.2471ZM169.034 21.8706C169.339 21.8706 169.644 22.0235 169.644 22.3294C169.644 22.6353 169.339 22.7882 169.034 22.7882H168.423V21.8706H169.034Z" fill="#F1F1F1"/>
</g>
</svg>
